<svg xmlns="http://www.w3.org/2000/svg" width="206.363" height="104.628" viewBox="0 0 206.363 104.628">
  <g id="Group_9" data-name="Group 9" transform="translate(-645.601 -367.907)">
    <g id="Group_2" data-name="Group 2" transform="translate(645.601 411.708)">
      <g id="Group_1" data-name="Group 1" transform="translate(0 0)">
        <path id="Path_1" data-name="Path 1" d="M645.759,626.077c.021-3.038-.015-5.653-.158-8.063q2.042.149,4.084.254.062,2.536.125,5.072l.212.011a7.564,7.564,0,0,1,7.145-5.42,5.146,5.146,0,0,1,1.325.176q-.015,2.213-.03,4.425a7.208,7.208,0,0,0-1.59-.18c-3.289-.055-5.639,2.336-6.3,5.825a13.159,13.159,0,0,0-.227,2.175q-.046,6.875-.092,13.751-2.307-.113-4.615-.28Q645.7,634.95,645.759,626.077Z" transform="translate(-645.601 -583.473)" fill="#2c81d6"/>
        <path id="Path_2" data-name="Path 2" d="M735.821,627.743c-.064,9.553-6.669,14.482-12.875,14.917-6.949.509-12.272-4.523-12.217-12.677.058-8.642,5.715-13.807,12.822-14.346C730.924,615.078,735.874,619.833,735.821,627.743Zm-20.37,1.919c-.038,5.65,3.169,9.8,7.731,9.462,4.456-.327,7.826-4.9,7.865-10.708.029-4.385-2.108-9.673-7.625-9.25C717.905,619.565,715.484,624.746,715.451,629.662Z" transform="translate(-690.344 -581.868)" fill="#2c81d6"/>
        <path id="Path_3" data-name="Path 3" d="M840.782,625.183a19.332,19.332,0,0,1-7.383,2.777c-7.744,1.3-12.748-3.313-12.695-11.206.053-7.958,5.5-14.443,13.883-15.867a14.808,14.808,0,0,1,6.462.2l-1.085,3.82a10.089,10.089,0,0,0-5.4-.285c-5.888,1-9.1,5.832-9.136,11.227-.04,5.976,3.754,9.092,8.846,8.229a15.1,15.1,0,0,0,5.737-2.278Z" transform="translate(-765.897 -571.593)" fill="#2c81d6"/>
        <path id="Path_4" data-name="Path 4" d="M919.482,552.617q2.334-.45,4.668-.908l-.108,16.123.106-.021a12.536,12.536,0,0,1,8.146-6.254c3.448-.689,8.95.34,8.89,9.257q-.052,7.688-.1,15.376l-4.668.934q.05-7.421.1-14.842c.028-4.165-1.487-7.379-5.89-6.5a8.806,8.806,0,0,0-6.29,5.938,6.235,6.235,0,0,0-.333,2.3q-.052,7.795-.1,15.589-2.334.458-4.668.907Q919.355,571.569,919.482,552.617Z" transform="translate(-833.583 -537.98)" fill="#2c81d6"/>
        <path id="Path_5" data-name="Path 5" d="M1029.009,578.561c.063,6.334,4.077,8.176,8.744,7.339a19.8,19.8,0,0,0,7.117-2.569q.387,1.615.773,3.23a24.561,24.561,0,0,1-8.551,3.083c-7.9,1.433-12.589-2.852-12.537-10.654s4.656-14.839,12.134-16.2c8.381-1.5,10.559,5.6,10.527,10.341a18.614,18.614,0,0,1-.174,2.214C1041.031,576.33,1035.02,577.418,1029.009,578.561Zm13.707-5.848c.073-2.993-1.169-7.437-6.42-6.491-4.721.86-6.819,5.641-7.212,8.966Q1035.9,573.892,1042.716,572.713Z" transform="translate(-905.942 -545.453)" fill="#2c81d6"/>
        <path id="Path_6" data-name="Path 6" d="M1132.317,514.043q2.334-.322,4.668-.615-.127,18.943-.254,37.887-2.334.294-4.668.618Q1132.19,532.988,1132.317,514.043Z" transform="translate(-979.801 -511.681)" fill="#2c81d6"/>
        <path id="Path_7" data-name="Path 7" d="M1189.254,508.2q2.334-.2,4.668-.356-.127,18.936-.254,37.873-2.334.16-4.668.361Q1189.127,527.14,1189.254,508.2Z" transform="translate(-1018.917 -507.845)" fill="#2c81d6"/>
        <path id="Path_8" data-name="Path 8" d="M1255.826,569.38q-.175-1.635-.35-3.27l-.159-.008a9.575,9.575,0,0,1-7.876,3.61c-5.2-.042-7.826-3.61-7.8-7.353.042-6.2,5.581-9.92,15.5-9.435l0-.533c.014-2.117-.544-6.039-5.795-6.164a12.184,12.184,0,0,0-6.7,1.9q-.52-1.54-1.04-3.078a15,15,0,0,1,8.449-2.268c7.85.222,9.723,5.872,9.688,11.007q-.032,4.823-.065,9.646a36.911,36.911,0,0,0,.383,6.212Q1257.948,569.488,1255.826,569.38Zm-.6-13.2c-5.091-.371-10.88.56-10.913,5.578a4.15,4.15,0,0,0,4.373,4.5,6.273,6.273,0,0,0,6.235-4.126,4.811,4.811,0,0,0,.276-1.48Q1255.209,558.42,1255.225,556.182Z" transform="translate(-1053.707 -531.841)" fill="#2c81d6"/>
      </g>
    </g>
    <path id="Path_9" data-name="Path 9" d="M904.282,408.474c-.009.014-.023.032-.033.047l-.021.017.064-.079a.193.193,0,0,0,.024-.017,33.263,33.263,0,0,1-6.79.863,61.508,61.508,0,0,1-7.759-.582l-10.3-1.425-2.6-.337c-.872-.093-1.753-.152-2.629-.228s-1.75-.16-2.633-.2H871.2l-.935-.07c-.493-.021-.987,0-1.48,0-.983.018-1.988.006-2.947.079l-2.9.172-2.879.059c-2.416.049-4.6.094-6.781.186-2.094.083-4.206.091-6.513.24-3.258-.068-6.5-.223-9.829-.222a65.706,65.706,0,0,0-11.953.942,44.119,44.119,0,0,0-7.089,1.687,25.753,25.753,0,0,0-5.427,2.48c-1.231.325-2.462.635-3.548.954a27.1,27.1,0,0,0-7.147,2.788c-.545.346-1.1.682-1.633,1.043l-1.539,1.141c-.983.826-1.925,1.719-2.879,2.578a36.573,36.573,0,0,0-5.247,7.3c-.72,1.256-1.354,2.491-2,3.771-.617,1.194-1.268,2.4-1.963,3.658q-.41.375-.8.768c.031-.188.132-.652.189-1.272.041-.638.1-1.451.074-2.27-.014-1.652-.124-3.378-.161-4.338-.09-.416.219-1.814-.211-2.335a4.087,4.087,0,0,0-1.079,1.677,8.909,8.909,0,0,0-.457,2.133c-.2,1.873-.156,3.681-.368,5.359-.084.447-.116.894-.227,1.3s-.221.789-.316,1.178l-.028.085c-.238.846-.819,1.94-1.25,3.179-.026.07-.075.212-.129.392a66.78,66.78,0,0,0-3.557,6.329,18.456,18.456,0,0,0-1.477,3.4c-.023.041-.052.09-.075.129.018-.018.043-.045.061-.063,0,.013-.008.033-.01.046.9-.238,2.705-2.461,3.191-3.179,1.825-2.383,3.007-4.7,4.695-7.052.065-.064.121-.135.186-.2.194-.2.383-.4.574-.6.372-.041.7-.1.865-.109a7.468,7.468,0,0,1,1.962.187,5.326,5.326,0,0,1,1.894.857,28.651,28.651,0,0,1,2.347,1.834,21.546,21.546,0,0,0,3.272,2.5c.174.093.566.349.975.556a1.551,1.551,0,0,0,1.163.168,10.979,10.979,0,0,0-2.181-2.922,28.2,28.2,0,0,0-3.793-3.518,9.022,9.022,0,0,0-1.373-.859,7.526,7.526,0,0,1,3.924,2.059c.184.161.677.6,1.442,1.205a10.908,10.908,0,0,0,1.434.913,10.122,10.122,0,0,0,1.813.691,10.243,10.243,0,0,0,2.953.484,14,14,0,0,0,5.192-.555,33.056,33.056,0,0,0,3.494-1.108c1.141-.424,2.332-.878,3.265-1.26.078,0,.157.006.232,0a12.986,12.986,0,0,0,3.625-.666c.162-.065.44-.155.763-.267a36.618,36.618,0,0,0,7.355-1.3c.857-.237,3.3-1.528,6.411-2.485l2.367-.764c.8-.27,1.579-.512,2.3-.7,1.391-.439,2.75-.693,3.7-.988a7.652,7.652,0,0,0,1.108-.128c1.443-.182,2.724-.442,3.99-.725a16.333,16.333,0,0,1,1.908-.3,19.138,19.138,0,0,1,1.989-.2c.571-.036,3.393-.2,6.281-.475,1.2-.046,2.379-.153,3.56-.285l6.122-.746a87.7,87.7,0,0,0,15.422-3.391,49.57,49.57,0,0,0,10.344-4.656A33.19,33.19,0,0,0,898.6,417.3a40.341,40.341,0,0,0,3.416-4.175,25.818,25.818,0,0,0,1.563-2.7c.084-.194.162-.376.236-.553a3.579,3.579,0,0,0,.489-1.4.126.126,0,0,0-.023.02C904.279,408.489,904.28,408.479,904.282,408.474Zm-38.028.317a41.721,41.721,0,0,1,4.528-.1,24.88,24.88,0,0,1,3.025.157c-.31.138-.624.278-.954.409a17.676,17.676,0,0,0-2.759,1.57,18.063,18.063,0,0,0-3.1,2.557c-.245.286-1.319,1.137-1.251,1.763a7.311,7.311,0,0,0,3.362-1.279c1.371-.847,2.731-1.653,4.1-2.394,1.073-.521,2.024-.914,3.018-1.3a13.333,13.333,0,0,1,4.331-.653c5.7.679,11.724,1.485,15.3,1.183l1.857-.119c.8-.129,1.726-.215,2.63-.433.314-.09.622-.178.93-.264l-.044.023c-1.137.628-2.26,1.3-2.8,1.622-1.9,1.059-3.639,2.123-5.434,3.023a20.741,20.741,0,0,1-5.7,2.106,75.824,75.824,0,0,1-7.956,1.308c-1.875.2-3.82.306-5.611.478-.16.006-.319.008-.478.013.25-.163.506-.323.751-.507s1.34-1.053,2.46-2.019,2.4-1.9,3.136-2.427c.283-.252,1.541-.782,1.73-1.277a6.212,6.212,0,0,0-3.646.969,34.367,34.367,0,0,0-4.132,3.055,12.462,12.462,0,0,1-4.01,2.272c-4.811.023-9.65-.165-14.514-.232-.08,0-.16,0-.241,0,.6-.312,1.2-.649,1.81-1,.341-.2,1.806-1.122,3.311-2.241s3.164-2.3,4.069-2.991l1.1-.741a2.682,2.682,0,0,0,1-.9,10.021,10.021,0,0,0-4.335,1.59c-1.84,1.086-3.547,2.343-5.277,3.454a28.592,28.592,0,0,1-5.548,2.82q-1.787.024-3.568.072l.114-.074c.375-.237,1.978-1.317,3.734-2.571.439-.316.885-.639,1.328-.96l1.321-.9c.043-.029.079-.056.121-.085,1.081-.634,2.156-1.264,3.226-1.86A23.088,23.088,0,0,1,866.254,408.791Zm-13.8.27c.148,0,.3.009.448.008,1.768-.038,3.538-.1,5.413-.1-.518.25-1.033.51-1.53.789-1.768.967-3.438,2.025-5.147,3.116a20.133,20.133,0,0,0-1.66,1.141c-.982.645-1.95,1.312-2.928,1.958-.624.415-1.267.872-1.8,1.21a11.755,11.755,0,0,1-1.638.9c-.36.155-.733.3-1.117.431q-1.994.074-3.991.21c1.2-.768,2.312-1.646,3.49-2.516.414-.3,2.142-1.727,4.035-3.228a32.712,32.712,0,0,1,5.4-3.516A10.35,10.35,0,0,1,852.455,409.061Zm-8.22.031c1.43,0,2.833,0,4.166-.016a38.559,38.559,0,0,0-6.863,4.739,48.345,48.345,0,0,1-7.5,5.21c-.163.01-.326.023-.492.032-1.234.107-2.448.231-3.649.368a42.671,42.671,0,0,0,4.238-3.707,46.015,46.015,0,0,1,4.391-3.915,16.587,16.587,0,0,1,3.547-1.986C842.849,409.532,843.583,409.284,844.235,409.092Zm-14.217.335,1.685-.167c1.585-.048,3.27-.207,5.013-.187q1.139,0,2.3.005a23.826,23.826,0,0,0-5.443,4.179c-2.851,2.8-4.982,4.965-8.3,6.771q-1.374.2-2.727.425c.1-.08.2-.158.3-.24a25.9,25.9,0,0,0,2.632-2.658c1.154-1.327,2.337-2.805,2.963-3.653.12-.181.474-.546.784-.948a2.411,2.411,0,0,0,.646-1.072,8.962,8.962,0,0,0-3.5,2.457c-1.379,1.393-2.643,2.859-4.018,4.137a16.435,16.435,0,0,1-3.747,2.7q-1.57.314-3.116.674c1.862-1.835,3.242-3.894,4.96-5.841.21-.238.757-.9,1.538-1.721.388-.421.839-.86,1.336-1.312a19.689,19.689,0,0,1,1.7-1.244A23.381,23.381,0,0,1,830.018,409.427Zm-17.889,5.384a20.171,20.171,0,0,1,3.714-2.129c-.189.17-.378.346-.567.531a19.663,19.663,0,0,0-3.041,3.611c-.237.359-1.184,1.731-.984,2.273a27,27,0,0,0,3.008-2.763,45.457,45.457,0,0,1,4.178-3.72,26.241,26.241,0,0,1,2.394-1.639c.469-.12.941-.233,1.422-.34.2-.036.512-.109.9-.192-.107.076-.212.15-.314.228-.377.289-.781.554-1.128.869a25.277,25.277,0,0,0-1.941,1.965c-3.023,3.38-4.828,6.412-7.911,9.269-.338.095-.671.2-1.006.3a80.759,80.759,0,0,0-7.976,2.779c.184-.187.384-.378.552-.56.687-.81,1.272-1.5,1.653-1.951C807.56,420.117,809.3,416.836,812.129,414.811Zm-5.76,1.066c.722-.29,1.453-.557,2.2-.782l.267-.091a21.045,21.045,0,0,0-2.166,2.777c-1.328,1.932-2.4,4.013-3.9,5.894a36.916,36.916,0,0,1-2.785,3.335c-.76.3-1.5.608-2.236.923,1.084-1.6,2.026-3.258,2.974-4.847A27.3,27.3,0,0,1,806.369,415.877ZM796,423.572c.145-.166.408-.471.768-.885a11.067,11.067,0,0,1,1.44-1.437c.7-.659,1.57-1.426,2.543-2.174-.433.617-.848,1.251-1.27,1.89-.3.44-1.478,2.465-2.709,4.651a41.108,41.108,0,0,1-2.695,4.175c-.43.275-.828.6-1.249.9a14.474,14.474,0,0,0-1.284,1.048c-.261.137-.515.276-.753.418-.193.111-.372.245-.561.362C792.084,429.388,793.579,426.335,796,423.572Zm11.41,17.619a28.348,28.348,0,0,1-4.515.942,10.2,10.2,0,0,1-3.122-.561,8.378,8.378,0,0,1-3.157-1.772,12.953,12.953,0,0,0-4.282-2.8,7.046,7.046,0,0,0-3.655-.233c.262-.234.507-.455.731-.656.252-.192.482-.365.683-.519.1-.074.192-.148.291-.222a5.072,5.072,0,0,1,.952-.043c.145.021.544.063,1.086.165a12.826,12.826,0,0,1,1.952.615c1.441.574,2.99,1.442,3.911,1.836.377.161,1.678.963,2.2.819a9.746,9.746,0,0,0-2.96-2.7,14.258,14.258,0,0,0-5.121-2.207q.969-.639,1.932-1.271c.177-.124.362-.231.544-.345a5.193,5.193,0,0,1,1.9.065,11.608,11.608,0,0,1,3.688,1.985c1.171.865,2.2,1.916,3.544,3.061a17.184,17.184,0,0,0,5.62,3.116c.031.009.063.016.094.025C808.943,440.728,808.173,440.972,807.41,441.191Zm10.893-3a9.679,9.679,0,0,1-1.733-.586c-1.692-.767-3.485-2.03-4.585-2.569-.221-.115-.737-.417-1.263-.68a2.747,2.747,0,0,0-1.38-.361,25.995,25.995,0,0,0,6.128,4.789c-.435.116-.872.233-1.319.382l-.106.038a14.607,14.607,0,0,1-7.686-2.786,23.583,23.583,0,0,1-2.17-1.747,25.526,25.526,0,0,0-2.2-1.858,13.41,13.41,0,0,0-2.552-1.522,7.944,7.944,0,0,0-1.963-.575c.416-.241.833-.475,1.269-.679.926-.477,1.866-.918,2.81-1.341.633-.239,2.174-.88,4.114-1.644a6.088,6.088,0,0,1,1.041.148,15.442,15.442,0,0,1,4.359,1.758,49.411,49.411,0,0,1,4.122,2.879,36.371,36.371,0,0,0,5.812,3.533,16.267,16.267,0,0,0,4.514,1.353A38.389,38.389,0,0,1,818.3,438.191Zm13.552-3.829c-.774.221-1.55.481-2.32.757a17.72,17.72,0,0,1-2.843-.1c-3.249-.426-6.238-2.171-9.083-4.117l-2.584-1.832a30.427,30.427,0,0,0-2.588-1.739,14.571,14.571,0,0,0-3.525-1.466q3.013-.96,6.113-1.724c.278-.047.55-.083.816-.1a4.493,4.493,0,0,1,.735.027c.116.014.21.052.317.071s.282.105.419.156a17.038,17.038,0,0,1,1.756.749c.218.107.794.4,1.583.786.777.43,1.773.946,2.8,1.557,1.634.933,3.389,1.981,4.735,2.685a24.272,24.272,0,0,0,5.655,2.843c.558.163,1.134.3,1.715.43C834.3,433.649,833.106,434,831.854,434.362Zm14.083-3.433a17.941,17.941,0,0,1-4.728-1.319c-.288-.133-1.559-.708-2.935-1.492s-2.88-1.706-3.782-2.136c-.366-.175-1.634-1.011-2.154-.876a10.276,10.276,0,0,0,2.807,2.784,29.185,29.185,0,0,0,4.723,2.887,18.539,18.539,0,0,0,2.285.907c-.234.014-.469.026-.7.045a12.388,12.388,0,0,1-1.888.072,15.787,15.787,0,0,1-4.956-.835,23.7,23.7,0,0,1-4.595-2.289c-1.873-1.168-3.487-2.388-5.269-3.5a18.01,18.01,0,0,0-4.642-2.137c2.568-.49,5.195-.894,7.9-1.218.778-.125,2.373-.3,4.563-.493a7.054,7.054,0,0,1,.72.078,10.45,10.45,0,0,1,4.085,1.267,27.367,27.367,0,0,1,3.576,2.89,47.693,47.693,0,0,0,3.847,3.141,12.085,12.085,0,0,0,2.51,1.822c.107.056.219.093.327.147C847.057,430.746,846.49,430.829,845.937,430.929Zm8.979-.9c-.034,0-.068-.008-.1-.009a28.417,28.417,0,0,1-3.6-.325,9.05,9.05,0,0,1-4.041-1.892,21.432,21.432,0,0,1-1.924-1.44c-.63-.51-1.263-1-1.878-1.554-.116-.1-.219-.187-.333-.287-.218-.207-.439-.411-.662-.615a26.919,26.919,0,0,0-2.248-1.876c-.04-.035-.085-.071-.128-.107-.426-.3-.849-.594-1.275-.889-.09-.054-.192-.087-.281-.138l.406-.024a15.243,15.243,0,0,0,1.63-.013c.448-.027.886-.079,1.321-.144.7-.034,1.424-.067,2.16-.1a15.954,15.954,0,0,1,1.454.691,18.2,18.2,0,0,1,5.527,4.378,26.332,26.332,0,0,0,3.757,3.363,12.773,12.773,0,0,0,1.546.94C855.8,430.02,855.359,430.029,854.917,430.033ZM900.373,412.9a16.511,16.511,0,0,1-1.34,1.522l-1.379,1.484c-.485.468-1,.9-1.5,1.355a14.854,14.854,0,0,1-1.519,1.29,15.562,15.562,0,0,1-4.073,2.126,18.816,18.816,0,0,1-4.519,1.022l-1.561.039a11.88,11.88,0,0,0-1.833-.066,4.3,4.3,0,0,0,1.847.933c.422.088.855.162,1.234.223a6.248,6.248,0,0,0,.914.045c.362.006.715,0,1.062-.028q-1.214.584-2.463,1.105c-.213.035-.43.07-.623.1a19.935,19.935,0,0,1-4.683.386,31.1,31.1,0,0,1-5.451-1.133,6.151,6.151,0,0,0-2.115-.214c.214.573,1.576,1.232,2,1.464A14.241,14.241,0,0,0,879.123,426c.053.006.151.015.261.024q-1.656.493-3.337.911l-.31.027c-.448.02-.9-.032-1.343-.039a6.85,6.85,0,0,1-1.334-.109c-.553-.1-1.081-.2-1.6-.288l-1.469-.47c-.243-.08-.5-.134-.734-.23l-.717-.316c-.48-.218-1.009-.382-1.533-.634a8.168,8.168,0,0,0-2.233-.875c.094.614,1.487,1.782,1.95,2.112a13.232,13.232,0,0,0,4.313,1.914c-.773.146-1.546.29-2.318.42-.429.074-.839.124-1.26.189a13.45,13.45,0,0,1-4.082-.692,16.52,16.52,0,0,1-5.175-3.078c-.116-.1-.44-.383-.809-.67a3.947,3.947,0,0,0-1.021-.725,2.585,2.585,0,0,0,.407,1.338,10.1,10.1,0,0,0,.813,1.164,11.563,11.563,0,0,0,4.522,3.231c.063.025.183.073.33.128-.378.047-.764.1-1.142.145-.139.019-.274.034-.415.052a8.367,8.367,0,0,1-1.806-.418,16.052,16.052,0,0,1-5.857-4.169,39.583,39.583,0,0,0-3.371-3.233,11.007,11.007,0,0,0-1.941-1.218c2.155-.057,4.391-.093,6.678-.1,5.6.027,11.479.206,17,.015.427,0,.844-.01,1.242-.034,2.2-.084,4.422-.143,6.616-.3,2.163-.232,4.372-.488,6.556-.919a26.672,26.672,0,0,0,7.542-2.514,41.849,41.849,0,0,0,4.937-3.083c.47-.313.946-.632,1.4-.935.723-.541,1.373-1.106,1.979-1.6.122-.107.223-.21.338-.314C901.588,411.467,900.9,412.213,900.373,412.9Zm3.678-4.243a.1.1,0,0,0-.021,0c.075-.05.133-.1.19-.142C904.167,408.562,904.1,408.609,904.051,408.655Z" transform="translate(-90.022 -26.485)" fill="#e2e0c3"/>
    <g id="Group_5" data-name="Group 5" transform="translate(655.369 392.982)">
      <g id="Group_4" data-name="Group 4" transform="translate(0 0)">
        <g id="Group_3" data-name="Group 3">
          <path id="Path_10" data-name="Path 10" d="M684.032,448.018v2.119h1.939v1.021h-1.939v3.979c0,.915.261,1.433,1.015,1.433a3.043,3.043,0,0,0,.785-.091l.062,1.006a3.343,3.343,0,0,1-1.2.183,1.885,1.885,0,0,1-1.462-.564,2.714,2.714,0,0,1-.523-1.921v-4.025h-1.154v-1.021h1.154v-1.768Z" transform="translate(-680.069 -448.018)" fill="#e2e0c3"/>
          <path id="Path_11" data-name="Path 11" d="M684.222,504.7c0-.869-.015-1.616-.061-2.3h1.185l.046,1.448h.062a2.23,2.23,0,0,1,2.062-1.616,1.469,1.469,0,0,1,.385.046v1.265a2.057,2.057,0,0,0-.462-.046,1.892,1.892,0,0,0-1.816,1.723,3.753,3.753,0,0,0-.062.625v3.933h-1.339Z" transform="translate(-681.86 -485.259)" fill="#e2e0c3"/>
          <path id="Path_12" data-name="Path 12" d="M683.781,539.727v8.918c0,.655.015,1.4.061,1.906h-1.216l-.061-1.28h-.031A2.759,2.759,0,0,1,680,550.719c-1.8,0-3.185-1.509-3.185-3.75-.015-2.455,1.523-3.964,3.339-3.964a2.5,2.5,0,0,1,2.247,1.128h.031v-4.406Zm-1.354,6.449a2.34,2.34,0,0,0-.062-.564,1.987,1.987,0,0,0-1.954-1.555c-1.4,0-2.231,1.22-2.231,2.851,0,1.494.738,2.729,2.2,2.729a2.031,2.031,0,0,0,1.985-1.6,2.3,2.3,0,0,0,.062-.579Z" transform="translate(-676.81 -511.022)" fill="#e2e0c3"/>
        </g>
      </g>
    </g>
    <g id="Group_8" data-name="Group 8" transform="translate(835.797 367.907)">
      <g id="Group_7" data-name="Group 7">
        <g id="Group_6" data-name="Group 6">
          <path id="Path_13" data-name="Path 13" d="M1253.318,370.072c0-.762-.015-1.387-.062-2h1.185l.062,1.189h.046a2.57,2.57,0,0,1,2.339-1.357,2.2,2.2,0,0,1,2.108,1.479h.031a3.05,3.05,0,0,1,.831-.961,2.559,2.559,0,0,1,1.647-.518c.985,0,2.447.64,2.447,3.2v4.345h-1.323v-4.177c0-1.418-.523-2.271-1.616-2.271a1.751,1.751,0,0,0-1.6,1.219,2.2,2.2,0,0,0-.107.671v4.558h-1.324v-4.421c0-1.174-.523-2.027-1.554-2.027a2,2,0,0,0-1.785,2v4.451h-1.323Z" transform="translate(-1253.256 -367.907)" fill="#e2e0c3"/>
          <path id="Path_14" data-name="Path 14" d="M1265.782,418.35c0-.869-.015-1.616-.062-2.3h1.185l.046,1.448h.062a2.231,2.231,0,0,1,2.062-1.616,1.47,1.47,0,0,1,.385.046v1.265a2.062,2.062,0,0,0-.462-.046,1.893,1.893,0,0,0-1.816,1.723,3.8,3.8,0,0,0-.061.625v3.933h-1.339Z" transform="translate(-1261.819 -400.865)" fill="#e2e0c3"/>
          <path id="Path_15" data-name="Path 15" d="M1263.764,460.211h.031c.185-.259.446-.579.662-.839l2.185-2.546h1.631l-2.878,3.034,3.278,4.345h-1.646l-2.57-3.537-.692.762V464.2h-1.339V453.381h1.339Z" transform="translate(-1259.555 -426.628)" fill="#e2e0c3"/>
        </g>
      </g>
    </g>
  </g>
</svg>
