<svg xmlns="http://www.w3.org/2000/svg" width="33.706" height="53.93" viewBox="0 0 33.706 53.93">
  <path id="Icon_awesome-mobile-alt" data-name="Icon awesome-mobile-alt" d="M28.65,0H5.056A5.057,5.057,0,0,0,0,5.056V48.874A5.057,5.057,0,0,0,5.056,53.93H28.65a5.057,5.057,0,0,0,5.056-5.056V5.056A5.057,5.057,0,0,0,28.65,0Zm-11.8,50.559a3.371,3.371,0,1,1,3.371-3.371A3.367,3.367,0,0,1,16.853,50.559Zm11.8-11.376a1.268,1.268,0,0,1-1.264,1.264H6.32a1.268,1.268,0,0,1-1.264-1.264V6.32A1.268,1.268,0,0,1,6.32,5.056H27.386A1.268,1.268,0,0,1,28.65,6.32Z" fill="#1e3ebc"/>
</svg>
