<svg xmlns="http://www.w3.org/2000/svg" width="36" height="36" viewBox="0 0 36 36">
  <path id="Icon_simple-wheniwork" data-name="Icon simple-wheniwork" d="M18,36A18,18,0,1,1,36,18,18.014,18.014,0,0,1,18,36ZM18,3.021A14.981,14.981,0,1,0,32.98,18,15.015,15.015,0,0,0,18,3.021Zm8.827,16.722H13.819a1.046,1.046,0,0,1-1.047-1.036V17.189a1.043,1.043,0,0,1,1.047-1.045H26.941a1.043,1.043,0,0,1,1.045,1.045V18.7a1.234,1.234,0,0,1-1.16,1.045Zm-3.369-5.806H10.337A1.041,1.041,0,0,1,9.29,12.9V11.385a1.025,1.025,0,0,1,1.045-.932H23.457a1,1,0,0,1,.93.929v1.509a1.025,1.025,0,0,1-.928,1.045ZM10.337,22.063H23.458A1.04,1.04,0,0,1,24.5,23.109v1.509a1.043,1.043,0,0,1-1.037,1.045H10.337A1.232,1.232,0,0,1,9.291,24.5V23a1.024,1.024,0,0,1,1.045-.931Z" fill="#fff"/>
</svg>
