<svg xmlns="http://www.w3.org/2000/svg" width="89.921" height="53.93" viewBox="0 0 89.921 53.93">
  <path id="Icon_ionic-ios-laptop" data-name="Icon ionic-ios-laptop" d="M82.032,55.719V11.077a3.241,3.241,0,0,0-3.221-3.2H13.346a3.229,3.229,0,0,0-3.221,3.2V55.719H1.118c0,1.854,1.854,3.52,3.539,4.251A24.846,24.846,0,0,0,13.87,61.8H78.286a24.8,24.8,0,0,0,9.045-1.648c1.779-.749,3.708-2.509,3.708-4.438H82.032ZM46.078,9.373a.749.749,0,1,1-.749.749A.751.751,0,0,1,46.078,9.373ZM13.5,12.407H78.661a.376.376,0,0,1,.375.375V52.348a.376.376,0,0,1-.375.375H13.5a.376.376,0,0,1-.375-.375V12.781A.364.364,0,0,1,13.5,12.407ZM54,57.217H38.157a2.231,2.231,0,0,1-1.816-1.4H55.816A1.859,1.859,0,0,1,54,57.217Z" transform="translate(-1.118 -7.875)" fill="#1e3ebc"/>
</svg>
