<svg xmlns="http://www.w3.org/2000/svg" width="30.377" height="30.377" viewBox="0 0 30.377 30.377">
  <path id="Icon_ionic-ios-paper" data-name="Icon ionic-ios-paper" d="M8.925,5.712V29.225A1.025,1.025,0,0,1,7.9,30.247h0A1.025,1.025,0,0,1,6.88,29.225V8.048H5.712a2.334,2.334,0,0,0-2.337,2.337v21.03a2.334,2.334,0,0,0,2.337,2.337H31.5A2.258,2.258,0,0,0,33.752,31.5V5.712a2.334,2.334,0,0,0-2.337-2.337l-20.3.146A2.093,2.093,0,0,0,8.925,5.712Zm4.819,2.337h6.134A1.025,1.025,0,0,1,20.9,9.071h0a1.025,1.025,0,0,1-1.022,1.022H13.744a1.025,1.025,0,0,1-1.022-1.022h0A1.025,1.025,0,0,1,13.744,8.048Zm0,11.683H24.551a1.025,1.025,0,0,1,1.022,1.022h0a1.025,1.025,0,0,1-1.022,1.022H13.744a1.025,1.025,0,0,1-1.022-1.022h0A1.025,1.025,0,0,1,13.744,19.732Zm14.312,7.886H13.744A1.025,1.025,0,0,1,12.722,26.6h0a1.025,1.025,0,0,1,1.022-1.022H28.056A1.025,1.025,0,0,1,29.079,26.6h0A1.025,1.025,0,0,1,28.056,27.618Zm0-11.683H13.744a1.025,1.025,0,0,1-1.022-1.022h0a1.025,1.025,0,0,1,1.022-1.022H28.056a1.025,1.025,0,0,1,1.022,1.022h0A1.025,1.025,0,0,1,28.056,15.935Z" transform="translate(-3.375 -3.375)" fill="#fff"/>
</svg>
